<?xml version="1.0" encoding="UTF-8" standalone="no"?>
<!DOCTYPE svg PUBLIC "-//W3C//DTD SVG 1.1//EN" "http://www.w3.org/Graphics/SVG/1.1/DTD/svg11.dtd">
<svg version="1.1" xmlns="http://www.w3.org/2000/svg" xmlns:xlink="http://www.w3.org/1999/xlink" preserveAspectRatio="xMidYMid meet" viewBox="0 0 640 640" width="32" height="32"><defs><path d="M608.77 66C608.77 104.27 608.77 295.6 608.77 640L537.39 579.39L498.19 543.71L455.41 506.43L473.28 565.23C248.67 565.23 123.89 565.23 98.93 565.23C61.55 565.23 31.2 536.83 31.2 499.2C31.2 455.89 31.2 109.44 31.2 66.13C31.2 30.45 61.6 0.08 99.07 0.08C128.4 0.08 275.07 0.08 539.07 0.08L539.25 0C584.41 20.21 607.58 42.21 608.77 66ZM375.31 151.55C372.07 154.75 370.28 156.52 369.92 156.88C425.2 172.88 451.95 197.87 451.95 197.87C416.32 180.05 384.21 171.15 352.11 167.55C328.91 163.95 305.71 165.84 286.11 167.55C285.57 167.55 281.31 167.55 280.77 167.55C268.24 167.55 241.57 172.88 205.84 187.15C193.39 192.56 186.24 196.11 186.24 196.11C186.24 196.11 212.96 169.39 271.84 155.12C271.48 154.76 268.6 151.88 268.24 151.52C268.24 151.52 223.65 149.81 175.52 185.39C175.52 185.39 127.39 269.23 127.39 372.59C127.39 372.59 154.05 418.99 227.2 420.75C227.2 420.75 237.87 406.53 248.67 394.03C207.6 381.55 191.6 356.59 191.6 356.59C191.6 356.59 195.17 358.35 200.53 361.92C200.69 361.92 201.97 361.92 202.13 361.92C202.93 361.92 203.31 362.32 203.73 362.72C203.73 362.74 203.73 362.86 203.73 362.88C204.16 363.31 204.53 363.68 205.33 363.68C214.13 367.31 222.93 370.88 230.13 374.35C242.56 379.73 258.53 385.09 278.13 388.64C302.93 392.24 331.36 393.97 363.73 388.64C379.73 385.04 395.73 381.52 411.73 374.37C422.13 369.04 434.93 363.71 448.99 354.72C448.99 354.72 432.99 379.68 390.19 392.16C398.99 404.59 411.39 418.83 411.39 418.83C484.56 417.23 512.99 370.83 514.59 372.8C514.59 269.6 466.19 185.6 466.19 185.6C422.59 153.23 381.79 152 374.59 152C374.69 151.96 375.18 151.79 376.08 151.47L375.31 151.55ZM414.45 304.83C414.45 324.56 399.25 340.56 380.59 340.56C361.92 340.56 346.72 324.56 346.72 304.99C346.77 285.25 362 269.31 380.59 269.31C399.33 269.23 414.45 285.23 414.45 304.83ZM259.44 269.23C278.11 269.23 293.2 285.23 293.2 304.83C293.2 324.56 278 340.56 259.33 340.56C240.67 340.56 225.47 324.56 225.47 304.99C225.47 285.25 240.67 269.31 259.33 269.31C259.35 269.29 259.42 269.24 259.44 269.23Z" id="a4neUkq1w"></path></defs><g><g><g><use xlink:href="#a4neUkq1w" opacity="1" fill="#7289da" fill-opacity="1"></use><g><use xlink:href="#a4neUkq1w" opacity="1" fill-opacity="0" stroke="#000000" stroke-width="1" stroke-opacity="0"></use></g></g></g></g></svg>