<?xml version="1.0" encoding="UTF-8" standalone="no"?>
<!DOCTYPE svg PUBLIC "-//W3C//DTD SVG 1.1//EN" "http://www.w3.org/Graphics/SVG/1.1/DTD/svg11.dtd">
<svg version="1.1" xmlns="http://www.w3.org/2000/svg" xmlns:xlink="http://www.w3.org/1999/xlink" preserveAspectRatio="xMidYMid meet" viewBox="0 0 640 640" width="32" height="32"><defs><path d="M188.08 1.92C154 3.52 130.8 8.88 110.4 16.8C89.36 24.96 71.49 35.92 53.71 53.71C35.92 71.49 24.93 89.33 16.8 110.4C8.88 130.8 3.49 154 1.92 188.08C0.32 222.21 0 233.07 0 320C0 406.93 0.4 417.79 1.92 451.92C3.52 485.97 8.88 509.2 16.8 529.6C24.96 550.61 35.92 568.51 53.71 586.29C71.49 604.05 89.33 615.07 110.4 623.2C130.83 631.09 154.03 636.51 188.08 638.08C222.21 639.68 233.07 640 320 640C406.93 640 417.79 639.6 451.92 638.08C485.97 636.48 509.2 631.09 529.6 623.2C550.61 615.04 568.51 604.05 586.29 586.29C604.05 568.51 615.07 550.69 623.2 529.6C631.09 509.2 636.51 485.97 638.08 451.92C639.68 417.79 640 406.93 640 320C640 233.07 639.6 222.21 638.08 188.08C636.48 154.03 631.09 130.77 623.2 110.4C615.04 89.36 604.05 71.49 586.29 53.71C568.51 35.92 550.69 24.93 529.6 16.8C509.2 8.88 485.97 3.49 451.92 1.92C417.79 0.32 406.93 0 320 0C233.07 0 222.21 0.4 188.08 1.92ZM449.33 59.49C480.53 60.96 497.47 66.13 508.72 70.56C523.71 76.35 534.32 83.28 545.57 94.45C556.75 105.65 563.68 116.29 569.47 131.28C573.84 142.53 579.07 159.47 580.48 190.67C582 224.43 582.35 234.56 582.35 320C582.35 405.44 581.95 415.6 580.37 449.33C578.75 480.53 573.55 497.47 569.15 508.72C563.17 523.71 556.37 534.32 545.17 545.57C534 556.75 523.2 563.68 508.37 569.47C497.17 573.84 479.97 579.07 448.77 580.48C414.8 582 404.8 582.35 319.2 582.35C233.57 582.35 223.57 581.95 189.63 580.37C158.4 578.75 141.2 573.55 130 569.15C114.83 563.17 104.4 556.37 93.23 545.17C82 534 74.83 523.2 69.23 508.37C64.83 497.17 59.65 479.97 58.03 448.77C56.83 415.17 56.4 404.8 56.4 319.6C56.4 234.37 56.83 223.97 58.03 189.97C59.65 158.77 64.83 141.6 69.23 130.4C74.83 115.2 82 104.8 93.23 93.57C104.4 82.4 114.83 75.2 130 69.63C141.2 65.2 158.03 60 189.23 58.4C223.23 57.2 233.23 56.8 318.8 56.8C318.88 56.85 319.28 57.12 320 57.6C383.73 57.88 426.84 58.52 449.33 59.49ZM155.68 320C155.68 410.8 229.28 484.32 320 484.32C410.8 484.32 484.32 410.72 484.32 320C484.32 229.2 410.72 155.68 320 155.68C229.2 155.68 155.68 229.28 155.68 320ZM213.33 320C213.33 261.07 261.07 213.33 320 213.33C378.93 213.33 426.67 261.07 426.67 320C426.67 378.93 378.93 426.67 320 426.67C261.07 426.67 213.33 378.93 213.33 320ZM490.83 187.6C469.63 187.6 452.43 170.37 452.43 149.2C452.43 128.03 469.65 110.83 490.83 110.83C511.97 110.8 529.23 128.03 529.23 149.2C529.23 170.4 512 187.6 490.83 187.6Z" id="a4uu3qEE0f"></path></defs><g><g><g><use xlink:href="#a4uu3qEE0f" opacity="1" fill="#e4405f" fill-opacity="1"></use><g><use xlink:href="#a4uu3qEE0f" opacity="1" fill-opacity="0" stroke="#000000" stroke-width="1" stroke-opacity="0"></use></g></g></g></g></svg>