<?xml version="1.0" encoding="UTF-8" standalone="no"?>
<!DOCTYPE svg PUBLIC "-//W3C//DTD SVG 1.1//EN" "http://www.w3.org/Graphics/SVG/1.1/DTD/svg11.dtd">
<svg version="1.1" xmlns="http://www.w3.org/2000/svg" xmlns:xlink="http://www.w3.org/1999/xlink" preserveAspectRatio="xMidYMid meet" viewBox="0 0 640 640" width="32" height="32"><defs><path d="M0 320C0 496.73 143.27 640 320 640C496.73 640 640 496.73 640 320C640 143.27 496.73 0 320 0C143.27 0 0 143.27 0 320ZM486.93 159.81C486.74 178.22 471.65 192.98 453.24 192.79C435.69 192.6 421.29 178.83 420.32 161.31C415.7 160.33 392.62 155.47 351.07 146.72C338.27 206.67 331.16 239.98 329.73 246.64C378.37 248.51 422.53 263.49 454.37 286.32C462.59 278.08 473.84 273.23 486.56 273.23C512.37 273.23 533.33 294.19 533.33 320C533.33 339.09 521.73 355.55 506.4 363.04C507.16 367.62 507.54 372.26 507.52 376.91C507.52 448.75 424.05 506.77 320.75 506.77C217.44 506.77 133.97 448.75 133.97 376.91C133.97 372.03 134.37 367.15 135.12 362.67C118.25 355.18 107.39 338.45 107.41 320C107.41 294.19 128.37 273.23 154.19 273.23C166.53 273.23 178.13 278.45 186.37 286.29C218.56 262.75 263.12 248.16 312.88 246.64C315.24 235.49 334.12 146.27 336.48 135.12C337.04 132.97 338.37 131.11 340.21 129.87C342.13 128.75 344.38 128.35 346.56 128.75C354.31 130.39 416.3 143.55 424.05 145.2C429.4 133.73 440.94 126.43 453.6 126.51C471.95 126.51 486.93 141.47 486.93 159.81ZM213.33 353.33C213.33 371.65 228.29 386.61 246.67 386.61C264.99 386.61 279.95 371.65 279.95 353.31C279.95 334.96 264.99 320 246.64 320C228.29 320 213.33 334.99 213.33 353.33ZM360.05 353.33C360.05 371.65 375.01 386.61 393.36 386.61C411.71 386.61 426.67 371.65 426.67 353.31C426.67 334.99 411.68 320 393.33 320C375.01 320 360.05 334.96 360.05 353.33ZM241.41 428.91C238.04 432.33 238.04 437.83 241.41 441.25C263.87 463.71 307.65 465.6 320.37 465.6C333.09 465.6 376.51 464.11 399.33 441.25C402.55 437.87 402.88 432.67 400.11 428.91C396.68 425.52 391.16 425.52 387.73 428.91C373.15 443.12 342.83 448.37 320.75 448.37C298.67 448.37 267.97 443.15 253.76 428.91C252.12 427.27 249.89 426.36 247.57 426.37C245.27 426.39 243.05 427.29 241.41 428.91Z" id="b4wBQH1PZA"></path></defs><g><g><g><use xlink:href="#b4wBQH1PZA" opacity="1" fill="#ff4500" fill-opacity="1"></use><g><use xlink:href="#b4wBQH1PZA" opacity="1" fill-opacity="0" stroke="#000000" stroke-width="1" stroke-opacity="0"></use></g></g></g></g></svg>