<?xml version="1.0" encoding="UTF-8" standalone="no"?>
<!DOCTYPE svg PUBLIC "-//W3C//DTD SVG 1.1//EN" "http://www.w3.org/Graphics/SVG/1.1/DTD/svg11.dtd">
<svg version="1.1" xmlns="http://www.w3.org/2000/svg" xmlns:xlink="http://www.w3.org/1999/xlink" preserveAspectRatio="xMidYMid meet" viewBox="0 0 640 640" width="32" height="32"><defs><path d="M570.85 109.79C520.99 96.43 320.29 96.43 320.29 96.43C320.29 96.43 120.11 96.16 69.73 109.79C42.71 117.33 21.59 138.44 14.05 165.47C4.6 216.52 -0.06 268.35 0.13 320.27C-0.02 371.99 4.64 423.62 14.05 474.48C21.59 501.5 42.71 522.62 69.73 530.16C119.55 543.55 320.29 543.55 320.29 543.55C320.29 543.55 520.45 543.55 570.85 530.16C597.88 522.62 618.99 501.5 626.53 474.48C635.75 423.6 640.22 371.97 639.87 320.27C640.25 268.36 635.79 216.54 626.53 165.47C618.99 138.44 597.88 117.33 570.85 109.79ZM256.24 416.03L256.24 224.21L423.28 320.27L256.24 416.03Z" id="c1E7zblVRf"></path></defs><g><g><g><use xlink:href="#c1E7zblVRf" opacity="1" fill="#ff0000" fill-opacity="1"></use><g><use xlink:href="#c1E7zblVRf" opacity="1" fill-opacity="0" stroke="#000000" stroke-width="1" stroke-opacity="0"></use></g></g></g></g></svg>